<svg xmlns="http://www.w3.org/2000/svg" xmlns:xlink="http://www.w3.org/1999/xlink" viewBox="0 0 2000 2000">
<defs>
<style>.cls-1{fill:none;}.cls-2{isolation:isolate;}.cls-3{fill:#fff;}.cls-4{fill:#306f54;}.cls-5{fill:#59a780;}.cls-6{fill:#93b1c2;}.cls-7{fill:#438ba5;}.cls-8,.cls-9{fill:#b1d4ff;}.cls-8{opacity:0.7;}.cls-10{fill:#f37168;}.cls-11{fill:#d6e7f0;}.cls-12{fill:#f2f2f2;}.cls-13{fill:#c17536;}.cls-14{fill:#4c3434;}.cls-15{fill:#303c60;}.cls-16{fill:#58556e;}.cls-17{fill:#cc4729;}.cls-18{fill:#dd7957;}.cls-19{fill:#dd613b;}.cls-20{fill:#ffb78f;}.cls-21{fill:#3e6bab;}.cls-22{fill:#f09959;}.cls-23{fill:#7a4e34;}.cls-24{fill:#63acc2;}.cls-25{fill:#2e5b9a;}.cls-26{fill:#edc055;}.cls-27{fill:#f5ce5c;}.cls-28{fill:#e38540;}.cls-29{fill:#fca96a;}.cls-30{fill:#25596e;}.cls-31{fill:#2f6c7f;opacity:0.5;mix-blend-mode:multiply;}.cls-32{fill:#533e3d;}.cls-33{fill:#f2e5de;}.cls-34{fill:#3a384d;}.cls-35{fill:#bdccd4;}.cls-36{clip-path:url(#clip-path);}.cls-37{mix-blend-mode:overlay;}.cls-38{fill:url(#Черно-белый);}.cls-39{fill:url(#Черно-белый-2);}</style>
<clipPath id="clip-path">
<path class="cls-1" d="M434.3,324.67c73.65,0,170.41-27.71,200.3-36.84,4.52-1.38,9.19,1.7,9.19,6.08V498.76c0,158.29-206.29,286.61-206.29,286.61S231.22,657.05,231.22,498.76V303.41c0-4.2,4.32-7.26,8.75-6.2C268.41,304,360.67,324.67,434.3,324.67Z"/>
</clipPath><linearGradient id="Черно-белый" x1="2308.09" y1="190.18" x2="1835.62" y2="944.64" gradientTransform="matrix(-1, 0, 0, 1, 2346.17, 0)" gradientUnits="userSpaceOnUse">
<stop offset="0" stop-color="#fff"/><stop offset="1"/>
</linearGradient>
<linearGradient id="Черно-белый-2" x1="2222.9" y1="136.82" x2="1750.42" y2="891.29" xlink:href="#Черно-белый"/>
</defs>
<title>44121</title>
<g class="cls-2">
<g id="Слой_1" data-name="Слой 1"><rect class="cls-3" width="2000" height="2000"/>
<path class="cls-4" d="M1309.65,1120.66c124.9-147.57,152.25-210.32,149.21-391.19s133.37-435.71,60.77-379.72-174.65,242.79-131.08,387,33.3,191.65,18,231.34-99,140.59-99,140.59Z"/>
<path class="cls-5" d="M1385.83,1023.08c.41-.6.82-1.2,1.22-1.81,6-14.54,36.5-89.59,39.08-124.64,2.86-38.91-30.94-129-10.69-205.93s21.33-145,26.76-197.89c7.16-69.8,63.19-135.82,97.48-148a6.24,6.24,0,0,0-1.1-1.55l-9.18.2a56.13,56.13,0,0,0-9.77,6.3c-72.6,56-174.65,242.79-131.08,387s33.3,191.65,18,231.34c-4.14,10.7-13.25,25.86-24.34,42.29Z"/>
<path class="cls-4" d="M1286.41,1327.8c86.93-207.53,100.19-284.24,102-469.87s427.28-486.69,397.77-421.84-111.31,223.74-227.79,304.58-148,164.81-157.73,260.43-90.8,301.28-90.8,301.28L1289,1337.5Z"/>
<path class="cls-5" d="M1324.24,1242.81a2.8,2.8,0,0,1-.94-.15,3,3,0,0,1-1.91-3.79c.22-.65,21.83-66.11,36.32-120.77s26.71-152,27-186.58c.28-31.6,18.35-132.59,97.57-219.3C1521.71,669.1,1550.74,643,1590.91,607c39.68-35.63,89.07-80,170.15-159.8a3,3,0,1,1,4.21,4.27c-81.18,79.92-130.63,124.32-170.35,160-40.05,36-69,62-108.19,104.85-78,85.32-95.73,184.35-96,215.31-.31,34.86-12.62,133-27.22,188.06-14.53,54.84-36.2,120.46-36.42,121.12A3,3,0,0,1,1324.24,1242.81Z"/>
<path class="cls-4" d="M1398.44,1419.81c28.79-147.6,24.77-73.9-21.07-282.07C1324.91,899.47,1604.78,717.25,1640.06,805s61.27,355.94,43.21,345.69-121.11-266.36-125.45-256.4S1379.67,975,1378.68,1062.93s49.93,232.35,49.93,232.35l-13.2,127.78Z"/>
<path class="cls-5" d="M1415.76,1422.17a3.64,3.64,0,0,1-.56-.05l-17-3.25a3,3,0,0,1-2.38-3.53c3.32-17,6.27-31.4,8.63-42.93,12.81-62.42,12.81-62.42-1.9-118.18-6.68-25.29-15.82-59.92-28.14-115.85a279,279,0,0,1,1.37-126.49c8.94-37,25.14-72.85,48.14-106.5,39.45-57.7,97.65-105.09,148.29-120.72,35.55-11,61.28-4,70.6,19.21,15,37.32,30.21,112.28,40.67,200.52,4.39,37,7.34,72.1,8.31,98.76,1.61,44.27-2.68,48-4.51,49.62a4.62,4.62,0,0,1-5.52.52c-10.09-5.72-38.79-68.94-78.24-157.62-19.2-43.16-39-87.68-45.39-97.38-3.34,2.75-10.34,6.69-24.08,14.31-49.23,27.31-151.65,84.13-152.4,150.35-1,86.41,49.25,229.89,49.76,231.33a3,3,0,0,1,.15,1.3l-12.84,123.89a3,3,0,0,1-1.2,2.1A3,3,0,0,1,1415.76,1422.17Zm-13.45-8.63,10.81,2.07,12.43-120c-3.68-10.62-50.82-148.26-49.87-232.74.79-69.71,105.27-127.68,155.49-155.54,11.53-6.4,22.43-12.44,24-14.41a3.38,3.38,0,0,1,3-1.94h.13c2.47,0,4.34.52,19,31.83,8.63,18.43,19.86,43.68,31.75,70.4,15.08,33.92,32.18,72.36,46.29,102,18.27,38.33,25.59,49.31,28.52,52.13,1.06-2.61,3.19-12.06,1.93-45-1-26.63-4-61.5-8.35-98.21-10.4-87.3-25.41-161.32-40.15-198-8-19.93-31.08-25.66-63.27-15.72-88.24,27.25-232.54,170.33-193.71,346.69,12.29,55.81,21.41,90.37,28.08,115.61,15.07,57.12,15.07,57.12,2,120.91C1408,1385,1405.38,1397.86,1402.31,1413.54Z"/>
<path class="cls-5" d="M1312.34,1131.1l2-1.92a496.82,496.82,0,0,1,3.35-54.63A272.53,272.53,0,0,0,1312.34,1131.1Z"/>
<path class="cls-5" d="M1397.2,999.74a160.44,160.44,0,0,0-13.31,37.89c29.73-73.24,163.59-129.69,172.93-140.41l1.73-2.75C1511.78,876.74,1429,937.25,1397.2,999.74Z"/>
<path class="cls-5" d="M1684,1146.91a3,3,0,0,1-3-2.55l-12.35-80.84q-1.18-7.73-2.39-15.67c-11.47-75.57-25.75-169.61-47.33-212.76-3.48-7-20.58-17.46-46.24-17.94-34.91-.65-104,17.37-174.26,145.48a3,3,0,1,1-5.26-2.88c71.74-130.88,143.39-149.28,179.63-148.6,28.45.53,47.24,12.75,51.49,21.26,22,44,35.77,134.59,47.91,214.53q1.2,7.95,2.38,15.67l12.35,80.84a3,3,0,0,1-2.51,3.42A2.38,2.38,0,0,1,1684,1146.91Z"/>
<path class="cls-5" d="M1627,1017.61a3.34,3.34,0,0,1-.62-.06A3,3,0,0,1,1624,1014c.16-.77,15.79-77.47,2.73-160.76a3,3,0,0,1,5.93-.93c13.23,84.41-2.62,162.14-2.79,162.91A3,3,0,0,1,1627,1017.61Z"/>
<path class="cls-5" d="M1607.3,967.48a3.18,3.18,0,0,1-.62-.06,3,3,0,0,1-2.32-3.56c.14-.7,14.76-70.94,14.28-130.09a3,3,0,0,1,6,0c.48,59.81-14.26,130.67-14.41,131.38A3,3,0,0,1,1607.3,967.48Z"/>
<path class="cls-5" d="M1592,612.83a3,3,0,0,1-.49-6c.67-.12,68.06-11.91,120.55-65.42a3,3,0,0,1,4.28,4.2c-53.9,55-123.15,67-123.84,67.14A4.38,4.38,0,0,1,1592,612.83Z"/>
<path class="cls-5" d="M1533.66,675.4c-4.4,0-6.94-.18-7.39-.22a3,3,0,0,1,.48-6c.51,0,51.88,3.66,122.8-26.17a3,3,0,0,1,2.33,5.53C1594.5,672.7,1550.5,675.4,1533.66,675.4Z"/>
<path class="cls-5" d="M1492.12,739.88c-16.17,0-24.49-3-25.17-3.21a3,3,0,0,1,2.09-5.62c.32.11,33,11.48,97.91-13.06a3,3,0,1,1,2.12,5.61C1534.65,736.63,1509.07,739.88,1492.12,739.88Z"/>
<path class="cls-4" d="M572.56,1525.4c-2.18-6.62-154.41-200.63-147.22-360.17,5-111.7-28.25-232.8-28.25-232.8s108.13,81,111.45,258.22c2,109.06-1.39,140.59,5.56,170.59s69.45,170.81,69.45,170.81Z"/>
<path class="cls-5" d="M583.55,1535.05a2.92,2.92,0,0,1-1.55-.44L571,1528a3,3,0,0,1-1.26-1.5c-.47-1-3.47-5.26-6.94-10.24-15.55-22.31-52-74.54-84-139.14-40.16-80.93-59.15-152.25-56.46-212,5-109.93-27.81-230.67-28.14-231.88a3,3,0,0,1,4.69-3.19c1.12.84,27.77,21.06,55.2,63.44,25.25,39,55.72,104.89,57.45,197.13.69,36.89.76,64.68.81,87,.1,43.56.15,63.43,4.67,83,6.8,29.37,68.65,168.86,69.28,170.27a3,3,0,0,1-.76,3.47A3,3,0,0,1,583.55,1535.05Zm-13.84-8.71,0,.08Zm5.14-3.07,2.11,1.29c-13.83-31.43-59.79-136.72-65.79-162.65-4.67-20.18-4.72-40.27-4.82-84.29-.05-22.31-.12-50.07-.81-86.91C503.84,1100,474,1035.3,449.21,997c-18.57-28.75-37.12-47.36-46.88-56.17,7.52,30.42,30.2,131.29,26,224.57-4.14,91.91,42.76,208.8,139.4,347.42C572.18,1519.17,574,1521.85,574.85,1523.27Z"/>
<path class="cls-4" d="M523.46,1495.32c5.74,10.42,10.77,28.41,15,48.83h10.09c-34.9-171.38-107.94-271.93-220-348.18-138.74-94.41-148-122.72-148-122.72s47.35,213.1,128.91,278.4S503.23,1458.59,523.46,1495.32Z"/>
<path class="cls-4" d="M464,1524.12c13.67.56,26.48,8.64,37.87,20h23.48c-25.8-44.24-59.5-80.75-100.19-81-102.69-.72-123.13,25.83-193.67,23.75a435.46,435.46,0,0,1-90.13-12.19s34.83,63.21,128.3,78.91C335.71,1564.67,414.51,1522.11,464,1524.12Z"/>
<path class="cls-5" d="M551.66,1565.29a3,3,0,0,1-2.93-2.34c-16.23-71.75-43.15-134.55-77.85-181.61-44.16-59.9-88.25-92.35-130.88-123.72-40.42-29.76-78.61-57.87-111.27-106.35a3,3,0,1,1,5-3.35c32.08,47.62,69.85,75.43,109.85,104.86,43,31.65,87.45,64.37,132.15,125,35.69,48.41,62.23,110.26,78.88,183.84a3,3,0,0,1-2.93,3.67Z"/>
<path class="cls-5" d="M542.1,1577.37a3,3,0,0,1-2.63-1.56c-32.14-58.87-63.65-90.94-99.14-100.93-31.32-8.81-61.68.72-93.83,10.8-9.12,2.86-18.55,5.82-28,8.33-82.83,22-125.66,7-127.44,6.4a3,3,0,1,1,2.05-5.64c.41.15,43.06,14.89,123.85-6.56,9.32-2.47,18.69-5.41,27.74-8.25,33-10.36,64.22-20.15,97.25-10.85,37.16,10.46,69.82,43.45,102.78,103.82a3,3,0,0,1-2.63,4.44Z"/>
<path class="cls-5" d="M391,1295.57a2.92,2.92,0,0,1-1.5-.41c-.53-.31-53.47-30.73-122-34.88a3,3,0,0,1,.36-6c70,4.24,124.13,35.37,124.67,35.69a3,3,0,0,1-1.52,5.59Z"/>
<path class="cls-5" d="M483.56,1396.69a3,3,0,0,1-2.36-1.15c-42.61-54.41-86.05-64-180.23-80.66a3,3,0,1,1,1-5.91c95.76,16.89,140,26.73,183.91,82.87a3,3,0,0,1-2.36,4.85Z"/>
<path class="cls-4" d="M1271.8,1576.3c116.45-230.38,239.3-322.48,403.44-357.46s183.44-57.68,183.44-57.68-124.36,179.4-224.55,209-219.82,25.79-252.43,52.15-92.47,143-92.47,143L1269,1581.15Z"/>
<path class="cls-4" d="M1326,1657.47c-1-4.29,48.93-237.57,151.53-241.93s124,21.46,194.39,16.88a435.17,435.17,0,0,0,89.64-15.38s-32.57,64.41-125.43,83.4c-65.65,13.43-145.91-26.31-195.26-22.55s-84.1,105.48-84.1,105.48l-13.41,53.33Z"/>
<path class="cls-5" d="M1278.16,1565.29a3.08,3.08,0,0,1-1.24-.27,3,3,0,0,1-1.49-4c.17-.38,17.63-38.74,50.2-85.91,30.08-43.56,79.6-103.84,144.7-143.57,64.3-39.24,117.82-52.74,169.58-65.79,48.16-12.14,93.64-23.61,141.34-55.58a3,3,0,0,1,3.34,5c-48.56,32.55-94.54,44.14-143.21,56.42-51.33,12.94-104.4,26.32-167.93,65.09-64.15,39.16-113.07,98.7-142.81,141.76-32.29,46.74-49.58,84.69-49.75,85.07A3,3,0,0,1,1278.16,1565.29Z"/>
<path class="cls-5" d="M1339.59,1590.36a2.88,2.88,0,0,1-1.1-.22,3,3,0,0,1-1.69-3.89c35.21-89.16,70.78-139.78,112-159.3,36.85-17.48,72.26-7.74,109.74,2.58,9.15,2.52,18.62,5.12,28,7.27,81.74,18.63,123.59,2.33,124,2.17a3,3,0,1,1,2.24,5.56c-1.76.71-44,17.16-127.58-1.88-9.53-2.18-19.06-4.8-28.28-7.34-36.38-10-70.74-19.47-105.58-2.94-39.7,18.83-74.32,68.43-108.94,156.09A3,3,0,0,1,1339.59,1590.36Z"/>
<path class="cls-5" d="M1708.45,1301.62a2.93,2.93,0,0,1-1-.16c-65-22.06-125.54-13.9-126.14-13.81a3,3,0,0,1-.84-5.94c.62-.09,62.48-8.47,128.91,14.07a3,3,0,0,1-1,5.84Z"/>
<path class="cls-5" d="M1457.05,1346.33a3,3,0,0,1-1.49-5.6c61.92-35.37,106.55-27.77,201.59-7.23a3,3,0,0,1-1.27,5.87c-93.48-20.21-137.34-27.7-197.35,6.57A3.06,3.06,0,0,1,1457.05,1346.33Z"/>
<path class="cls-6" d="M660.8,421h546.75a67.41,67.41,0,0,0-67.41-67.42H728.22A67.41,67.41,0,0,0,660.8,421Z"/><rect class="cls-7" x="483.29" y="388.47" width="891.25" height="1198.91"/><rect class="cls-3" x="521.3" y="439.6" width="815.24" height="1096.66"/><rect class="cls-8" x="587" y="664.88" width="696.6" height="19.92" rx="9.63"/><rect class="cls-8" x="587" y="703.54" width="696.6" height="19.92" rx="9.63"/>
<path class="cls-8" d="M1130.33,813.65H596.7a9.7,9.7,0,0,1,0-19.4h533.63a9.7,9.7,0,1,1,0,19.4Z"/>
<path class="cls-8" d="M1130.33,848.42H596.7a9.7,9.7,0,0,1,0-19.4h533.63a9.7,9.7,0,1,1,0,19.4Z"/><path class="cls-8" d="M1130.33,949H596.7a9.71,9.71,0,0,1,0-19.41h533.63a9.71,9.71,0,1,1,0,19.41Z"/>
<path class="cls-8" d="M1130.33,983.72H596.7a9.7,9.7,0,0,1,0-19.4h533.63a9.7,9.7,0,1,1,0,19.4Z"/><path class="cls-8" d="M1130.33,1108.22H596.7a9.71,9.71,0,0,1,0-19.41h533.63a9.71,9.71,0,1,1,0,19.41Z"/>
<path class="cls-8" d="M1130.33,1143H596.7a9.7,9.7,0,0,1,0-19.4h533.63a9.7,9.7,0,1,1,0,19.4Z"/><path class="cls-8" d="M1130.33,1232.58H596.7a9.71,9.71,0,0,1,0-19.41h533.63a9.71,9.71,0,1,1,0,19.41Z"/>
<path class="cls-8" d="M1130.33,1267.34H596.7a9.7,9.7,0,0,1,0-19.4h533.63a9.7,9.7,0,1,1,0,19.4Z"/><path class="cls-8" d="M1295.7,1441.73H762.06a9.71,9.71,0,0,1,0-19.41H1295.7a9.71,9.71,0,0,1,0,19.41Z"/>
<path class="cls-8" d="M1295.7,1490.18H762.06a9.7,9.7,0,1,1,0-19.4H1295.7a9.7,9.7,0,1,1,0,19.4Z"/><path class="cls-9" d="M1221.57,861.28h-31a24.47,24.47,0,0,1-24.44-24.44v-31a24.47,24.47,0,0,1,24.44-24.44h31A24.48,24.48,0,0,1,1246,805.83v31A24.48,24.48,0,0,1,1221.57,861.28Zm-31-65.89a10.45,10.45,0,0,0-10.44,10.44v31a10.45,10.45,0,0,0,10.44,10.44h31A10.45,10.45,0,0,0,1232,836.84v-31a10.45,10.45,0,0,0-10.44-10.44Z"/>
<path class="cls-9" d="M1221.57,993h-31a24.46,24.46,0,0,1-24.44-24.44v-31a24.46,24.46,0,0,1,24.44-24.44h31A24.47,24.47,0,0,1,1246,937.6v31A24.47,24.47,0,0,1,1221.57,993Zm-31-65.88a10.45,10.45,0,0,0-10.44,10.44v31A10.45,10.45,0,0,0,1190.57,979h31A10.45,10.45,0,0,0,1232,968.6v-31a10.45,10.45,0,0,0-10.44-10.44Z"/><path class="cls-10" d="M1208,842.84h-.29a6,6,0,0,1-4.48-2.34L1181,811.42a6,6,0,1,1,9.52-7.3l18,23.44,49.42-52.95a6,6,0,1,1,8.77,8.19l-54.26,58.13A6,6,0,0,1,1208,842.84Z"/>
<path class="cls-10" d="M1208,974.6h-.29a6,6,0,0,1-4.48-2.35L1181,943.19a6,6,0,1,1,9.52-7.3l18,23.44,49.42-53a6,6,0,1,1,8.77,8.19l-54.26,58.13A6,6,0,0,1,1208,974.6Z"/><path class="cls-9" d="M1221.57,1148.27h-31a23.47,23.47,0,0,1-23.44-23.44v-31a23.47,23.47,0,0,1,23.44-23.44h31a23.47,23.47,0,0,1,23.44,23.44v31A23.47,23.47,0,0,1,1221.57,1148.27Zm-31-65.89a11.46,11.46,0,0,0-11.44,11.44v31a11.45,11.45,0,0,0,11.44,11.44h31a11.45,11.45,0,0,0,11.44-11.44v-31a11.46,11.46,0,0,0-11.44-11.44Z"/>
<path class="cls-9" d="M1221.57,1281h-31a24.46,24.46,0,0,1-24.44-24.44v-31a24.46,24.46,0,0,1,24.44-24.44h31a24.47,24.47,0,0,1,24.44,24.44v31A24.47,24.47,0,0,1,1221.57,1281Zm-31-65.88a10.45,10.45,0,0,0-10.44,10.44v31a10.45,10.45,0,0,0,10.44,10.44h31a10.45,10.45,0,0,0,10.44-10.44v-31a10.45,10.45,0,0,0-10.44-10.44Z"/><path class="cls-10" d="M1208,1130.83h-.29a6,6,0,0,1-4.48-2.34L1181,1099.41a6,6,0,1,1,9.52-7.3l18,23.44,49.42-53a6,6,0,1,1,8.77,8.19l-54.26,58.13A6,6,0,0,1,1208,1130.83Z"/>
<path class="cls-10" d="M1208,1262.59h-.29a6,6,0,0,1-4.48-2.35L1181,1231.18a6,6,0,0,1,9.52-7.3l18,23.44,49.42-53a6,6,0,1,1,8.77,8.19l-54.26,58.13A6,6,0,0,1,1208,1262.59Z"/><path class="cls-6" d="M1044.78,469.13H813.06a95.26,95.26,0,0,1-95.26-95.26,20.31,20.31,0,0,1,20.31-20.31h381.61A20.31,20.31,0,0,1,1140,373.87,95.26,95.26,0,0,1,1044.78,469.13Z"/>
<path class="cls-11" d="M752.47,360.78h364.58a13.75,13.75,0,0,1,13.75,13.75v.61a64.46,64.46,0,0,1-64.46,64.46H803.18a64.46,64.46,0,0,1-64.46-64.46v-.61a13.74,13.74,0,0,1,13.74-13.74Z"/><rect class="cls-9" x="559.41" y="488.37" width="739.02" height="132.42"/>
<path class="cls-3" d="M696.31,523.59v64.84H681.59V523.59Z"/><path class="cls-3" d="M709,588.43V523.59h17.13l13.47,23.76a189.23,189.23,0,0,1,10.58,22.23h.29a241.18,241.18,0,0,1-1.25-27V523.59h13.47v64.84h-15.4l-13.85-25a239.72,239.72,0,0,1-11.25-22.9l-.29.1c.38,8.56.57,17.7.57,28.28v19.53Z"/><path class="cls-3" d="M775.86,573.33a37.45,37.45,0,0,0,16.26,4c6.74,0,10.3-2.79,10.3-7,0-4-3.08-6.35-10.87-9.14-10.78-3.75-17.8-9.72-17.8-19.15,0-11.06,9.23-19.53,24.53-19.53a39.78,39.78,0,0,1,16.55,3.27l-3.27,11.84A30.86,30.86,0,0,0,798,534.56c-6.35,0-9.43,2.88-9.43,6.25,0,4.14,3.66,6,12,9.14,11.45,4.24,16.83,10.2,16.83,19.34,0,10.87-8.36,20.11-26.16,20.11-7.41,0-14.72-1.93-18.38-3.95Z"/><path class="cls-3" d="M842,523.59v37.33c0,11.16,4.24,16.84,11.74,16.84,7.7,0,11.93-5.39,11.93-16.84V523.59h14.63V560c0,20-10.11,29.53-27,29.53-16.35,0-26-9-26-29.72V523.59Z"/><path class="cls-3" d="M892.94,524.46a128.73,128.73,0,0,1,19.53-1.35c9.62,0,16.35,1.44,21,5.1,3.85,3.08,6,7.6,6,13.56,0,8.28-5.87,14-11.45,16V558c4.52,1.83,7,6.16,8.66,12.13,2,7.31,4,15.77,5.29,18.27h-15c-1.06-1.82-2.6-7.11-4.52-15.1-1.73-8.08-4.52-10.29-10.49-10.39h-4.42v25.49H892.94Zm14.53,27.9h5.77c7.31,0,11.64-3.66,11.64-9.34,0-6-4-8.94-10.78-9a36.77,36.77,0,0,0-6.63.48Z"/><path class="cls-3" d="M966,571.79l-4.61,16.64h-15.2L966,523.59H985.2l20.1,64.84H989.52l-5-16.64Zm16.46-11-4-13.75c-1.15-3.85-2.3-8.66-3.27-12.51h-.19c-1,3.85-1.92,8.75-3,12.51l-3.85,13.75Z"/><path class="cls-3" d="M1014,588.43V523.59h17.12l13.47,23.76a187.65,187.65,0,0,1,10.58,22.23h.29a241.18,241.18,0,0,1-1.25-27V523.59h13.47v64.84h-15.39l-13.86-25a239.72,239.72,0,0,1-11.25-22.9l-.29.1c.38,8.56.58,17.7.58,28.28v19.53Z"/><path class="cls-3" d="M1128,586.61c-2.7,1.34-8.76,2.79-16.65,2.79-22.41,0-34-13.95-34-32.42,0-22.13,15.78-34.45,35.41-34.45,7.6,0,13.37,1.54,16,2.89l-3,11.64a31.63,31.63,0,0,0-12.31-2.4c-11.64,0-20.68,7-20.68,21.45,0,13,7.69,21.16,20.78,21.16a36.71,36.71,0,0,0,12.21-2.11Z"/><path class="cls-3" d="M1176.15,561h-23.86v15.39h26.65v12h-41.37V523.59h40v12h-25.31v13.47h23.86Z"/><rect class="cls-12" x="918.19" y="371.62" width="198.44" height="21.67" rx="9.63"/><path class="cls-13" d="M1672.1,1658c-273.6-56.29-500.81-30.85-579.47-35.65s-534.52-9.66-630.84,23.27,67.59,77.88,257.72,57,307.08-16.63,609.77,5.33S1709.5,1665.69,1672.1,1658Z"/><path class="cls-14" d="M732.85,840.34c41.07,29.67,129.3,42.6,157.44,44.12s-15.62,79.1-15.62,79.1-75.65,9.13-111.4,0S732.85,840.34,732.85,840.34Z"/><path class="cls-15" d="M662.37,1609.55c.51,20.28,12.07,32.35,30.93,46.39,19.78,14.73,20.79,16.34-6.59,20s-35-8.8-53.24-14.13-6.59-18.25-7.61-30.42-2.74-31.94-2.74-31.94Z"/><path class="cls-15" d="M822.09,1599.41a306.71,306.71,0,0,0,28.4,28.08c16.22,14,57.29,18.77,37.52,24s-41.93,2.41-62.29,5.34-38.11.09-39.63-5.34,0-44,0-44Z"/><path class="cls-16" d="M878.13,712c25.45-24.17,72.24,6.64,76.65,27.12,11.35,52.69,16.38,107.17,2.57,128.58S820.56,902.59,822.06,895s1.84-54.89,22.21-78,11.11-45.47,14.84-66.84C863.6,724.45,874.06,715.9,878.13,712Z"/><path class="cls-17" d="M825.56,866c-8.67,61.39-17,177-42.13,205.14s-39.07,95.26-39.07,95.26,81.11-44.3,114.31-153.21c10.42-34.16-15-113.94-21.16-121.55S825.56,866,825.56,866Z"/><path class="cls-18" d="M1001.34,1034.67c-5,6.09-18.45,35.58-25.26,35.58-23.2,0-24.91,9.1-37.49,15.76-16.16,8.56-12.74,21.68-11.6,22.44s35.53-5.26,47.08-12.79c9.58-6.24,16.39-9.65,21.07-16.49s31.13-26.62,31.13-26.62Z"/><path class="cls-19" d="M977.87,852.53c23.47,14.18,27.78,27.37,50.85,67.42s27.12,54.51,36.25,69,12.17,31.19-7.1,49.44c-18.4,17.44-27,24.55-37.1,21.83-6.8-1.84-12.18-21.66-21.64-18.07s7.28-24.3,15.9-32.15c4.69-4.29,6.59-4,5.07-5.91s-30.43-23.5-54.51-54.69S977.87,852.53,977.87,852.53Z"/><path class="cls-17" d="M1051.53,1002.35c-11.42-5.13-25.69-4.4-36.17-2.41,2.7,2.26,4.4,3.67,4.74,4.11,1.52,2-.38,1.62-5.07,5.91a50,50,0,0,0-5.65,6.42c8-4.24,16.73-8,23.9-9.09,18.25-2.66,19.4,2.28,28.9,8.37S1070.17,1010.71,1051.53,1002.35Z"/><path class="cls-17" d="M1001.47,873.76c-6.29-8.59-13-14.81-23.6-21.23,0,0-36.37,65.65-12.28,96.83A284.67,284.67,0,0,0,989,975.82C989.44,954.81,991.65,907.85,1001.47,873.76Z"/><path class="cls-19" d="M888.56,830.84c-31.44,7.1-56.81,16.37-63.3,34.6-3.15,8.85,15.09,154.91,33.34,171.13,35.23,31.32,93.3,2,93.3,2s26.37-65.66,36.83-175.89c2.72-9.94-60.16-29.46-70.3-31.49S888.56,830.84,888.56,830.84Z"/><path class="cls-20" d="M899.14,1605.61s-43.08,59.62-17.22,57.51,42.75-28.73,42.75-28.73,9,30.19,34.83,28.79,11.28-17.22,0-35.69a81.11,81.11,0,0,1-11.21-35.73Z"/><path class="cls-20" d="M902.84,859.36A19.45,19.45,0,0,1,883.45,840V767.71a19.4,19.4,0,1,1,38.79,0V840A19.46,19.46,0,0,1,902.84,859.36Z"/><path class="cls-18" d="M902.84,748.31a19.45,19.45,0,0,0-19.39,19.4v32.71a120.58,120.58,0,0,0,38.79,35.78V767.71A19.46,19.46,0,0,0,902.84,748.31Z"/><path class="cls-20" d="M952.22,758c6.07,25.85-4.26,50.37-23.05,54.78s-38.95-13-45-38.81,4.26-50.37,23.06-54.78S946.16,732.18,952.22,758Z"/><path class="cls-20" d="M863,1027.88S802.5,1073.51,821.89,1223s39.93,144.88,41.07,216.75,31.95,171.13,50.2,190.52,63.08-84.57,63.08-176.86c0-53.92,0-79.82,12.57-164.24s9.91-207.63-40.29-261.25S863,1027.88,863,1027.88Z"/><path class="cls-20" d="M911.94,1362.1c-.05-35.37-11.76-110.53-9.1-214.44l-77.12,102.79c18.18,121.68,36.18,122.11,37.24,189.26.87,54.46,18.76,124.63,35.32,163.88,10.77,3.86,18,8.39,19.91,14.09,2.56,7.63,4.26,11.85,5.27,13.07.36-.23.73-.49,1.1-.76.88-6.37-3.73-38.85-8.79-86.11C907.23,1464,912,1397.46,911.94,1362.1Z"/><path class="cls-19" d="M835.8,974.5c10.05,59.08,4,67.07-10.08,116.12s-14.28,179.11-14.28,179.11,38.22,16,112.18,9.13,84.23-14.83,84.23-14.83-8.41-126.63-19-164.28-27.24-63.39-28.06-87.6S835.8,974.5,835.8,974.5Z"/><path class="cls-21" d="M881.92,1663.12c25.86-2.11,42.75-28.73,42.75-28.73s9,30.19,34.83,28.79c22.21-1.21,14.59-13,4.85-28.06-.88,3.38-3.63,6.53-10.93,6.25-15.28-.59-29.63-19.15-29.63-19.15s-26.65,20.54-36.54,19.08,4.81-25.24,4.82-25.26C881.06,1633,863,1664.67,881.92,1663.12Z"/><path class="cls-22" d="M1033.05,1314.93c-3,34.23.13,60.09-6,88.23s-19.08,37.27-19.08,37.27l-11.41-131.58Z"/><path class="cls-23" d="M947.87,1170.42c-24.59-52.1-27-69.21-12.93-81.38s16.35-28.9,39.55-22.82,30.8,19.4,42.21,24.34,9.13,35.75-5.32,44.11S947.87,1170.42,947.87,1170.42Z"/><path class="cls-24" d="M929.18,1624.65s-1,15.8,3.36,22.92,7.6,10.35-8.89,10.67-21-3.88-22.32-13.91-1.12-13,1.22-19.13S929.18,1624.65,929.18,1624.65Z"/><path class="cls-24" d="M1014.8,1627.15s18.63,16.73,29.66,20.54-4.44,12.17-23.91,8-17.92,1.52-27.81-3-.82-28.84-.82-28.84Z"/><path class="cls-21" d="M1017.08,1365.13s0,127,1.52,176.46,2.54,82.9,1.56,88.39c-.42,2.31-21.37-.76-30.49,0s-28.46-113.49-36.48-175.1-11.41-106.48-11.41-106.48Z"/><path class="cls-25" d="M953.19,1454.88c3.78,29,10.06,69.66,16.6,104.51,9-39.72,26.75-110.29,47.37-151.08-.08-25.13-.08-43.18-.08-43.18l-47.28-10.51-27.08,5.05C944.22,1376.71,947.57,1411.68,953.19,1454.88Z"/><path class="cls-21" d="M909.08,1337.75c-3.81,62.37-9.71,206.17-7.7,238.06,2.18,34.61-2.19,47.92-2.19,47.92s8.37,3,22.06,4.56l8.68,1s34.67-91.48,41.52-154.61,25.09-112.56,25.09-112.56Z"/><path class="cls-26" d="M1008.18,1205.43c29.44,39.53,32.48,117.11,32.48,117.11s-12,9.13-23.5,4.56S1008.18,1205.43,1008.18,1205.43Z"/><path class="cls-27" d="M976.77,1184.47c35,8,49.44,48.32,50.2,80.26s-5.33,117.89-5.33,120.94-68.45,9.12-93.55,3.8l-25.1-5.32s-6.84-127,0-158.21,51.72-45.63,51.72-45.63Z"/><path class="cls-26" d="M964.64,1270.83c-1.9-11.59,13.61-13.5,20.5-12.54s8.52,8.55,11.4,9.5,6.89-3.49,10.5-.89-.57,10-5.13,10.4-7.23-4.12-10.46-2.06-1.9,3.39-2.47,3.39-12,1.33-12,1.33-5-3.23-8.37-2.85-2.13,4-2.13,4-5.66-.38-4.33-4.37A33,33,0,0,1,964.64,1270.83Z"/><path class="cls-26" d="M990.5,1278.63c3.47-3.85,7-.19,8.55,1.14s-2.68,4-6.08,4S990.5,1278.63,990.5,1278.63Z"/><path class="cls-26" d="M968.06,1281.1c-.38-2.85,5.32-2.28,7,0s-3.81,4.57-5.52,4S968.06,1281.1,968.06,1281.1Z"/><path class="cls-26" d="M958.55,1283.76c-.38-1.14-15-7.22-13.31-12.74s11.41,6.37,11.41,6.37-6.65-14.54-3.23-15.68,4.75,9.12,5.13,12.17A81.15,81.15,0,0,1,958.55,1283.76Z"/><path class="cls-26" d="M999.37,1259.24s1-12.36,5.2-9.89-2.6,9.89-2.6,9.89,8.68-6.85,10.78-3-13.38,5.43-13.38,5.43Z"/><path class="cls-26" d="M932.69,1337.75c3.08-38.79,11.37-92.79-12.2-131.58l-6.31-.74c-5.27,5.79-9.45,12.61-11.19,20.51-6.84,31.19,0,158.21,0,158.21l25.1,5.32c1.14.24,2.37.46,3.68.65A409,409,0,0,1,932.69,1337.75Z"/><path class="cls-22" d="M966.5,1206.17a18.69,18.69,0,0,1-18.63-18.64v-34.22a18.64,18.64,0,1,1,37.27,0v34.22C987.84,1205.43,978.52,1207.71,966.5,1206.17Z"/><path class="cls-28" d="M985.14,1189V1143.8a9.16,9.16,0,0,0-9.13-9.13H957a9.15,9.15,0,0,0-9.12,9.13v29C962.64,1186.18,976.13,1189.08,985.14,1189Z"/><path class="cls-29" d="M1014.87,1130c3.39,24.48-9,46.43-27.76,49s-36.65-15.15-40-39.64,9-46.44,27.76-49S1011.48,1105.49,1014.87,1130Z"/><path class="cls-29" d="M913.51,1206.17c-34.1,15.21-37.14,125.5-38.66,142.23s6.85,73.77,11.41,89,17.47,27.27,18.15,8.33-4.46-28.87-4.46-28.87,6.85,14.45,9.13,6.85-9.89-19-9.89-25.86,9.89-47.16,9.89-60.09,19-54.76,19-89S913.51,1206.17,913.51,1206.17Z"/><path class="cls-27" d="M925,1195.76c-31.16,12.69-40.66,49.2-50.36,84.19l-9.71,35s51,18,54,15.86,14.45-65.3,13.69-91.16S925,1195.76,925,1195.76Z"/><path class="cls-29" d="M954,1140c2.29,6,.84,12.2-3.25,13.75s-9.26-2.09-11.55-8.13-.84-12.2,3.24-13.75S951.7,1134,954,1140Z"/><path class="cls-23" d="M943.68,1126.69s9.48,29.35,11.4,18.67-1.13-15.63,6.1-18.67-2.28-23.58,8-21.68,18.64,14.3,34.23,11.33,22.06-6.38,15.59-15.13-59.7-17.12-59.7-17.12L936.64,1110Z"/><path class="cls-25" d="M992.74,1655.67c9.89,4.57,8.33-1.14,27.81,3s37.31-6.09,26.28-9.89l-.8-.29a55.36,55.36,0,0,0-8.67,5.61c-2.53,2-9.12.51-18.19-1s-7.5,1.1-9.7-1.27-11.11-8.59-21.27-8.6C987.83,1648.69,988.72,1653.82,992.74,1655.67Z"/><path class="cls-25" d="M900.53,1630.86c8.11,16.53,4.24,19.48,11.08,20.62s9.17-4.19,16.48-1.64,6.32,2.54,8,4.57.9,4.5-2.15,5.29-18.76,1-24.84,0-10.14-12.36-9.89-16.43S900.53,1630.86,900.53,1630.86Z"/><path class="cls-16" d="M702.09,791.71c-12-16.88-24.08-62.8-13.36-67.49s8-12.07,18.77-25.81,54-19.1,66.71,4,18.19,25.48,18.65,37.88-30.05,43.24-30.05,43.24Z"/><path class="cls-20" d="M985.41,1061.11c-3.51,5.25-6.85,9.14-9.33,9.14-23.2,0-24.91,9.1-37.49,15.76-16.16,8.56-12.74,21.68-11.6,22.44s35.53-5.26,47.08-12.79c9.58-6.24,16.39-9.65,21.07-16.49a36.33,36.33,0,0,1,4.73-5.12A106.29,106.29,0,0,1,985.41,1061.11Z"/><path class="cls-22" d="M710,732.34S702.43,826,685.69,836.2,637,884.46,641.58,966.6s10.65,117.58,16.73,149.3,120.18,12.39,132.34,0,25.86-125.72,0-183.14-54.76-89.88-57.8-104.08,16.73-71.24,16.73-71.24Z"/><path class="cls-28" d="M732.54,825.61c-.38-17.9,17-68.17,17-68.17L710,732.34s-1.66,20.41-5.13,43.22C710,807.26,720.3,819.43,732.54,825.61Z"/><path class="cls-22" d="M782.24,758.65c3.81,27.5-5.66,49-25.46,51.78s-42.44-14.34-46.25-41.85,9.15-52,29-54.77S778.43,731.14,782.24,758.65Z"/><path class="cls-22" d="M999.37,863.92c11.65,7.24,20.53,25.36,15.43,40.06s-12.16-4.16-19.92-15S990.66,858.51,999.37,863.92Z"/><path class="cls-30" d="M792.23,1060.74c-8,96,19,312.81,19.21,361.86s19.78,183.19,19.78,183.19S799.28,1615,786.73,1616s-48.8-121.57-54.16-186.59S693.29,1249,693.29,1249l11.61-198Z"/><path class="cls-31" d="M792.23,1060.74,704.9,1051l-11.61,198s33.92,115.4,39.28,180.43c.07.84.15,1.7.23,2.58.65-100.23,29.79-143.74,60.58-249.85C790.73,1135.57,789.65,1091.83,792.23,1060.74Z"/><path class="cls-30" d="M788.81,1092.91C747.74,1232.08,710.09,1363.28,685,1450s-17.56,175.83-17.56,175.83l-42.21,3.37s-47.47-142.92-15.53-220.27,16.75-124,22.82-196.22c6.84-81.52,18.35-141.1,18.35-141.1Z"/><path class="cls-32" d="M790.65,932.76c-13.88-30.85-28.64-54.47-39.81-72a154.47,154.47,0,0,0-18.26-1.45c-11.77-.23-32.26-15.34-44.48-25.26a10.45,10.45,0,0,1-2.41,2.1C669,846.43,637,884.46,641.58,966.6S628.9,1076.79,635,1108.51s143.5,19.78,155.66,7.39S816.51,990.18,790.65,932.76Z"/><path class="cls-32" d="M683.67,816.51l-12.36,32.58,78.27,31.82,9-7.76s-12.08-17.59-9-28.24,6.59-13.69,0-16.23-30-6.59-44.68-12.17S686.21,809.8,683.67,816.51Z"/><path class="cls-14" d="M804.63,999.25c-1.56-24.45-5.77-48.28-14-66.49-3-6.71-6.08-13.06-9.14-19.1l-9.87-4.29s-54.76-43.72-90.51-35.56-37.27,141.32-16.73,155.92,82.14-22.46,101.16-25.68C777.9,1002,794.5,1000.22,804.63,999.25Z"/><path class="cls-32" d="M943.44,944.53c-22.34,0-45.21-1.91-64.17-7.72-57-17.49-163.82-61.22-184.82-58.36C678,880.7,658.71,898.78,661,955.07s31.18,44.87,67.28,35.64,84.81-3.59,151,0c22.44,1.21,47-2.41,69.68-7.72C947.72,970.1,945.84,957.32,943.44,944.53Z"/><path class="cls-22" d="M1025.59,948.66c-3.87-2.1-36.78-.38-68.24-1.18,1.95,11,7,29.17,8.22,40.27,33.73-9.83,60.66-10.8,60.66-10.8S1032.6,952.47,1025.59,948.66Z"/><path class="cls-32" d="M926.33,942.05c20.17.32,53.61-2.19,58.21.86s12.74,38.89-3.38,43.47c-58.92,16.73-125.1,4.7-204.2-.69s89.59-52.93,89.59-52.93S909.54,941.79,926.33,942.05Z"/><path class="cls-16" d="M702.09,791.71c13.43-6.64,6.76-19.54,7.93-28.1s-2.56-15.4.64-14.83,2.49,32.84,6.54,32.63,2.54-24.34,6.81-25,6-6.68,2.6-17.25-.67-20,8.38-11.58,29.16,27.82,40.89,25.14,11.06-14.75,10.06-16.09-31.17-35.19-31.17-35.19L695.1,735.62l-1.67,31.17Z"/><path class="cls-22" d="M712.8,755.11c.8,8.1,1.07,20.39,1.78,22.16-5.32,2.17-12.12-2.19-15.2-9.73S696.59,750.1,702,748.1C705.33,746.86,711.86,745.67,712.8,755.11Z"/><path class="cls-16" d="M949,736.91c-8.46,27.38-55.62,27.76-57.9,35.36s-.7,31.39-7.6,50.2c-11,30.06-18.12,45.76-33.47,50.33s-21.81-20.88-21.81-20.88,27.51-36.29,29-37,16-93.56,16-93.56,36.86-6.76,38.76-7.75,28.52,10.8,28.52,10.8Z"/><path class="cls-22" d="M990.59,950.1c5.87,0,35.91-16.82,41.62-17.34s28.14,5.58,28.14,5.58-43.28,33.55-44.08,33.12S990.59,950.1,990.59,950.1Z"/><path class="cls-28" d="M1116.63,979l-32.7-3.19s-17.51,15.51-33.47,19.12-28.9-13.49-28.9-13.49l24.77-29,43.68-4.93,33.09,3.39Z"/><path class="cls-22" d="M1007.85,974.5s20.17,16.25,37.29,18.58,26.62-6,32.7-11.63-12.93-11.4-19.77-18.11-1.9-17.8-1.9-17.8h-29.9Z"/><path class="cls-28" d="M1116.63,947.48l-33.08-3.63s-13.69-12.09-20.54-11.09-24.37,14.72-24.37,14.72-15,14-9.76,15.55,20.44-2.9,22.34-6.39-3.8,1.21,13.31,0,19-4.23,19-4.23l33.08,2.64Z"/><path class="cls-28" d="M1017.62,983c4.32-6.66,10.35-10.61,21-4.71s13.79,14.2,11.82,16.65-22.08-4.08-29.62-6.35C1015,986.83,1017.62,983,1017.62,983Z"/><path class="cls-16" d="M1427.05,782.13c5.75-21.63,21.48-73.83-3.55-85.28s-37.54-28.24-62.57-19.66-20,28.25-29,39,6.08,45.77,20.38,58.28S1427.05,782.13,1427.05,782.13Z"/><polygon class="cls-33" points="1116.32 944.76 1095.25 943.85 1086.2 984.71 1121.61 991.38 1116.32 944.76"/><path class="cls-16" d="M1451.1,865.25c33.08,46.49,12.93,82-28.33,112.17s-138.39,39.55-179.46,41.37-143.75-29.71-143.75-29.71l6.33-45.23s97.24,9.28,134.88,2.83,171.13-81.43,171.13-81.43Z"/><path class="cls-34" d="M1374,886c-11.79,6.31-25.4,13.47-39.44,20.61-13.63,35.48-17.46,71.86-83.61,96a293.19,293.19,0,0,1-43.36,12.17c13.82,2.81,26.39,4.47,35.76,4.06,29.77-1.32,96.68,2.49,142.73-11.81C1384.66,971.58,1375.12,915.6,1374,886Z"/><polygon class="cls-22" points="1412.66 737.88 1437.76 819.4 1386.04 883.04 1401.26 828.39 1386.04 772.48 1412.66 737.88"/><path class="cls-28" d="M1412.66,737.88,1386,772.48l15.13,55.59a190.91,190.91,0,0,0,21.6-57.38Z"/><path class="cls-22" d="M1413.52,770.8c-8.65,26.91-31.89,43.52-51.92,37.08s-29.26-33.47-20.61-60.39,31.9-43.51,51.93-37.08S1422.17,743.88,1413.52,770.8Z"/><path class="cls-10" d="M1388.83,852.47s-15.29,9.13-15.25,16.23,0,11.15,0,11.15a281.56,281.56,0,0,0-23.28,46.07c-10.15,25.93-9.62,39.12-9.62,39.12L1405,867.2Z"/><path class="cls-34" d="M1479.33,1623.92c-.51,20.28-22.88,34.6-33.49,40-33.28,16.9-39,27.46-2.54,26.92,27.62-.41,46.65-11.2,76.57-13.23,19-1.28,5.3-22.36,6.31-34.53s-7.6-29.29-7.6-29.29Z"/><path class="cls-34" d="M1319.6,1613.78s-6.71,9.25-22.94,23.25-73.42,14.46-43,28.82c18.49,8.73,52.55,2.41,72.91,5.34s38.11.09,39.63-5.34-4.17-42.51-4.17-42.51Z"/><path class="cls-16" d="M1349.46,1075.11c8,96.05-19,312.81-19.2,361.86s-27.91,191.73-27.91,191.73,53.51,21.72,66.06,22.78S1407.55,1527,1412.92,1462s35.49-198.62,35.49-198.62l-11.62-198Z"/><path class="cls-34" d="M1405.73,1517.61c3.31-20.32,5.88-39.75,7.19-55.6,5.36-65,35.49-198.62,35.49-198.62l-3.88-66.05-96.18-1.37c-2,35.35-4.91,72.36-7.82,106.78C1377.48,1383.3,1396.76,1468.17,1405.73,1517.61Z"/><path class="cls-16" d="M1352.89,1107.28c37.2,201.57,64.59,281.72,89.69,368.42S1462,1651.48,1462,1651.48l69.59,8.89s27.2-157.79.45-237.09c-16.42-48.64-5.56-114.55-11.63-186.82-6.84-81.52-12.78-164.87-12.78-164.87Z"/><path class="cls-34" d="M1497.56,1177.65l-120.27,51.94c.54,2.48-.53,14.74,0,17.18,58.91,4.91,96.18-.67,144.43,11-1.1-14.14-3.35-47.47-4.29-61.8Z"/><path class="cls-16" d="M1446.53,826.84c50.2,47.48,68.46,97.67,66.77,125.25-3.43,55.84,7.2,270.54,7.2,270.54s-29.49,6.71-78.9,15.74-97.09-4.17-97.09-4.17-8.36-153.39-8-249.72C1336.78,925.75,1446.53,826.84,1446.53,826.84Z"/><path class="cls-34" d="M1495.68,1227.9c1.3-25.39,10.39-204.11,9-206.94-1.53-3-59.33-137.92-59.33-137.92-30.93,42.09-32.88,129.81-32.41,177,.42,42.49,13.21,157.82,15.74,180.25,4.28-.48,8.6-1.09,12.94-1.89C1463.37,1234.39,1481.84,1230.74,1495.68,1227.9Z"/><polygon class="cls-33" points="1442.58 813.94 1432.94 795.17 1386.04 833.2 1383.25 885.3 1442.58 813.94"/><path class="cls-34" d="M1434.47,856s19.13-8.77,36.75-2.67c-7.24-8.86-13.88-17.66-24.69-27.89,0,0-109.75,98.92-110,157.65-.06,14.35.3,28.9.93,43.26.37-29.42-3.89-50.68,25-89.09,25.6-34,80.12-62,80.12-62Z"/><path class="cls-16" d="M1443.09,809.27l13.79,26.36-34.11,24.45,9.16,15.21s-41.13,26.16-58.35,39.55c-28.86,22.44-39,75.55-39,75.55s4.05-53.11,39-97.15C1405.54,853,1443.09,809.27,1443.09,809.27Z"/><polygon class="cls-35" points="1395.87 1225.35 1542.18 1243.1 1532.27 1339.95 1393.12 1325.68 1395.87 1225.35"/><path class="cls-22" d="M1479.6,1162.7l-14.7,53.92-22.31,15.06,18.06,2.92s-3.27,32.06-9.4,46.64.46,19.43,25.31,2.43,31.73-25.27,30.06-45.18-6.23-22.35-3.69-38.87-23.84-40.32-23.84-40.32Z"/><polygon class="cls-33" points="1463.9 1189.89 1458.83 1217.58 1506.92 1225.35 1514.89 1189.89 1463.9 1189.89"/><path class="cls-16" d="M1477.15,865.25c18.13,7.45,41.2,73.53,74.93,191.26,8.16,28.46-37.19,157.19-37.19,157.19s-57.94-3.69-58.66-13c-.41-5.33,25.48-107.51,22.06-117.34s-23.4-39.85-40.53-106.85S1444.12,851.68,1477.15,865.25Z"/><path class="cls-16" d="M1342.42,706.87c-18,45,21,40.4,37.46,26.45s18.54-1.89,18.2,14.66c-.31,15.54,5.9,4.18,4.47,21.7S1400,788,1405.74,782s7.55-28.25,7.55-28.25-1.35,28.7,6.85,30.66,6.91-2.23,6.91-2.23L1428.9,734l-36.15-40.4s-46.37.35-46.43,1.78S1342.42,706.87,1342.42,706.87Z"/><path class="cls-22" d="M1413.29,753.7c5.56-12.15,17.83-6.43,14.56,7.87a19.89,19.89,0,0,1-16.72,15.59Z"/><path class="cls-6" d="M434.3,324.67c73.65,0,170.41-27.71,200.3-36.84,4.52-1.38,9.19,1.7,9.19,6.08V498.76c0,158.29-206.29,286.61-206.29,286.61S231.22,657.05,231.22,498.76V303.41c0-4.2,4.32-7.26,8.75-6.2C268.41,304,360.67,324.67,434.3,324.67Z"/><path class="cls-7" d="M437.5,358.37c55.26,0,124-18.12,158.45-32.42,10.3-4.26,21.95,2.63,21.95,13V503.33C617.9,641.76,437.5,754,437.5,754S257.1,641.76,257.1,503.33V346.09c0-9.94,10.82-16.82,21-13.36C312.26,344.39,381.73,358.37,437.5,358.37Z"/><path class="cls-9" d="M439.41,403V710.23s-143.47-91.42-143.47-200V385.66c0-7.26,7.91-12.26,15.31-9.69C338.05,385.28,394.82,403,439.41,403Z"/><path class="cls-9" d="M439.41,403V710.23S588,618.81,588,510.18V385.37c0-7.18-7.76-12.19-15.13-9.75C545.06,384.82,484.56,403,439.41,403Z"/><g class="cls-36"><g class="cls-37"><path class="cls-38" d="M288,496.75c19,62.08,29.82,160.07,34.87,218-53.2-49.59-106-108.1-108.68-138.67-3.32-38.24-9.85-148.5-8.71-225.15C227.47,377.07,267.92,431.25,288,496.75Z"/><path class="cls-39" d="M387.59,620.79C372,548.4,327.13,367.73,207,311.69c1.76-23.86,5.05-39.27,10.56-39.6,22-1.34,48,11.33,48,11.33,117.33-.67,174.67,177.33,180,208s-.67,301.47-12,308.74c-2.47,1.58-14.06-5.31-30.73-17.67C402.44,749.92,400,678.46,387.59,620.79Z"/></g></g></g></g>
</svg> 